<svg id="Layer_1" data-name="Layer 1" xmlns="http://www.w3.org/2000/svg" width="52.85" height="52.66" viewBox="0 0 52.85 52.66"><title>logo</title><path d="M52.59,23.31l-0.76-1-2-2.63L45,13.44a1.25,1.25,0,0,0-1.75-.22L27.41,25.44a1.25,1.25,0,0,0-.22,1.75L32,33.44l2,2.63,0.76,1a1.25,1.25,0,0,0,1.75.22L52.36,25.06A1.25,1.25,0,0,0,52.59,23.31ZM27.85,26.68a0.42,0.42,0,0,1,.07-0.58L43.71,13.88a0.41,0.41,0,0,1,.58.07l4.84,6.25L32.68,32.93Zm5.35,6.91L49.64,20.86l1,1.32L34.21,34.9ZM51.85,24.4L36.07,36.62a0.41,0.41,0,0,1-.58-0.07l-0.76-1L51.17,22.83l0.76,1A0.42,0.42,0,0,1,51.85,24.4ZM43.74,16L37.16,21l0.51,0.66,6.58-5.09Zm1.53,2L41.32,21l0.51,0.66,3.95-3.06ZM33.05,25.25a0.81,0.81,0,0,0-1.14-.14l-1.34,1a0.81,0.81,0,0,0-.15,1.14l0,0a0.81,0.81,0,0,0,1.14.14l1.34-1a0.81,0.81,0,0,0,.15-1.14Z" transform="translate(0 0)" fill="#f1595a"/><path d="M39.47,43L27.26,27.22A1.25,1.25,0,0,0,25.51,27l-6.25,4.84-2.63,2-1,.76a1.25,1.25,0,0,0-.22,1.75L27.63,52.17a1.25,1.25,0,0,0,1.75.22l1-.76,2.63-2,6.25-4.84A1.25,1.25,0,0,0,39.47,43Zm-10.6,8.73a0.41,0.41,0,0,1-.58-0.08L16.07,35.88a0.42,0.42,0,0,1,.08-0.58l1-.76L29.86,51Zm1.65-1.27L17.79,34l1.32-1L31.83,49.45Zm8.22-6.36-6.25,4.84L19.77,32.49,26,27.66a0.42,0.42,0,0,1,.58.07L38.81,43.52A0.41,0.41,0,0,1,38.74,44.1ZM31,37.48l5.09,6.58,0.66-.51L31.65,37Zm0.06,4.16,3.05,3.95,0.66-.51-3.05-3.95Zm-4.5-11.26a0.81,0.81,0,0,0-1.14-.15l0,0a0.81,0.81,0,0,0-.14,1.14l1,1.34a0.81,0.81,0,0,0,1.14.15l0,0a0.81,0.81,0,0,0,.14-1.14Z" transform="translate(0 0)" fill="#72a1d6"/><path d="M25.66,25.29L20.82,19l-2-2.63-0.76-1a1.25,1.25,0,0,0-1.75-.22L0.48,27.41a1.25,1.25,0,0,0-.22,1.75l0.76,1,2,2.63L7.9,39a1.25,1.25,0,0,0,1.75.22L25.43,27A1.25,1.25,0,0,0,25.66,25.29ZM0.92,28.65A0.42,0.42,0,0,1,1,28.07L16.78,15.85a0.41,0.41,0,0,1,.58.07l0.76,1L1.68,29.64ZM2.19,30.3L18.64,17.57l1,1.32L3.21,31.61Zm22.74-3.92L9.14,38.6a0.42,0.42,0,0,1-.58-0.07L3.72,32.27,20.16,19.55,25,25.8A0.42,0.42,0,0,1,24.93,26.38ZM8.6,35.86l0.51,0.66,6.58-5.09-0.51-.66Zm2.42-5L7.07,33.89l0.51,0.66,3.95-3.05ZM22.4,25.15A0.81,0.81,0,0,0,21.25,25l-1.34,1a0.81,0.81,0,0,0-.16,1.14l0,0a0.81,0.81,0,0,0,1.14.14l1.34-1a0.81,0.81,0,0,0,.15-1.14Z" transform="translate(0 0)" fill="#ffd12d"/><path d="M37.54,16.27L25.33,0.48A1.25,1.25,0,0,0,23.58.26l-1,.76L20,3.06,13.71,7.9a1.25,1.25,0,0,0-.22,1.75L25.7,25.43a1.25,1.25,0,0,0,1.75.22l6.25-4.84,2.63-2,1-.76A1.25,1.25,0,0,0,37.54,16.27ZM26.94,25a0.42,0.42,0,0,1-.58-0.07L14.15,9.14a0.42,0.42,0,0,1,.07-0.58l6.25-4.84L33.19,20.16Zm6.91-5.34L21.13,3.21l1.32-1L35.17,18.64Zm3-2.29-1,.76L23.1,1.68l1-.76a0.42,0.42,0,0,1,.58.07L36.89,16.78A0.42,0.42,0,0,1,36.81,17.36ZM16.22,9.11l5.09,6.58L22,15.17,16.88,8.6Zm2-1.53,3.05,3.95L21.91,11,18.85,7.07Zm8.22,14.69a0.81,0.81,0,0,0,1.14.15l0,0a0.82,0.82,0,0,0,.14-1.14l-1-1.34a0.81,0.81,0,0,0-1.14-.16l0,0a0.81,0.81,0,0,0-.14,1.14Z" transform="translate(0 0)" fill="#0baa4b"/></svg>