<svg data-name="Layer 1" xmlns="http://www.w3.org/2000/svg" width="52.85" height="52.66" viewBox="0 0 52.85 52.66">
    <title>
        logo
    </title>
    <path d="M52.59 23.31l-.76-1-2-2.63L45 13.44a1.25 1.25 0 0 0-1.75-.22L27.41 25.44a1.25 1.25 0 0 0-.22 1.75L32 33.44l2 2.63.76 1a1.25 1.25 0 0 0 1.75.22l15.85-12.23a1.25 1.25 0 0 0 .23-1.75zm-24.74 3.37a.42.42 0 0 1 .07-.58l15.79-12.22a.41.41 0 0 1 .58.07l4.84 6.25-16.45 12.73zm5.35 6.91l16.44-12.73 1 1.32L34.21 34.9zm18.65-9.19L36.07 36.62a.41.41 0 0 1-.58-.07l-.76-1 16.44-12.72.76 1a.42.42 0 0 1-.08.57zM43.74 16l-6.58 5 .51.66 6.58-5.09zm1.53 2l-3.95 3 .51.66 3.95-3.06zm-12.22 7.25a.81.81 0 0 0-1.14-.14l-1.34 1a.81.81 0 0 0-.15 1.14.81.81 0 0 0 1.14.14l1.34-1a.81.81 0 0 0 .15-1.14z" fill="#f1595a"/>
    <path d="M39.47 43L27.26 27.22a1.25 1.25 0 0 0-1.75-.22l-6.25 4.84-2.63 2-1 .76a1.25 1.25 0 0 0-.22 1.75l12.22 15.82a1.25 1.25 0 0 0 1.75.22l1-.76 2.63-2 6.25-4.84a1.25 1.25 0 0 0 .21-1.79zm-10.6 8.73a.41.41 0 0 1-.58-.08L16.07 35.88a.42.42 0 0 1 .08-.58l1-.76L29.86 51zm1.65-1.27L17.79 34l1.32-1 12.72 16.45zm8.22-6.36l-6.25 4.84-12.72-16.45L26 27.66a.42.42 0 0 1 .58.07l12.23 15.79a.41.41 0 0 1-.07.58zM31 37.48l5.09 6.58.66-.51-5.1-6.55zm.06 4.16l3.05 3.95.66-.51-3.05-3.95zm-4.5-11.26a.81.81 0 0 0-1.14-.15.81.81 0 0 0-.14 1.14l1 1.34a.81.81 0 0 0 1.14.15.81.81 0 0 0 .14-1.14z" fill="#72a1d6"/>
    <path d="M25.66 25.29L20.82 19l-2-2.63-.76-1a1.25 1.25 0 0 0-1.75-.22L.48 27.41a1.25 1.25 0 0 0-.22 1.75l.76 1 2 2.63L7.9 39a1.25 1.25 0 0 0 1.75.22L25.43 27a1.25 1.25 0 0 0 .23-1.71zM.92 28.65a.42.42 0 0 1 .08-.58l15.78-12.22a.41.41 0 0 1 .58.07l.76 1L1.68 29.64zm1.27 1.65l16.45-12.73 1 1.32L3.21 31.61zm22.74-3.92L9.14 38.6a.42.42 0 0 1-.58-.07l-4.84-6.26 16.44-12.72L25 25.8a.42.42 0 0 1-.07.58zM8.6 35.86l.51.66 6.58-5.09-.51-.66zm2.42-5l-3.95 3.03.51.66 3.95-3.05zm11.38-5.71a.81.81 0 0 0-1.15-.15l-1.34 1a.81.81 0 0 0-.16 1.14.81.81 0 0 0 1.14.14l1.34-1a.81.81 0 0 0 .15-1.14z" fill="#ffd12d"/>
    <path d="M37.54 16.27L25.33.48a1.25 1.25 0 0 0-1.75-.22l-1 .76L20 3.06 13.71 7.9a1.25 1.25 0 0 0-.22 1.75L25.7 25.43a1.25 1.25 0 0 0 1.75.22l6.25-4.84 2.63-2 1-.76a1.25 1.25 0 0 0 .21-1.78zM26.94 25a.42.42 0 0 1-.58-.07L14.15 9.14a.42.42 0 0 1 .07-.58l6.25-4.84 12.72 16.44zm6.91-5.34L21.13 3.21l1.32-1 12.72 16.43zm3-2.29l-1 .76L23.1 1.68l1-.76a.42.42 0 0 1 .58.07l12.21 15.79a.42.42 0 0 1-.08.58zM16.22 9.11l5.09 6.58.69-.52-5.12-6.57zm2-1.53l3.05 3.95.64-.53-3.06-3.93zm8.22 14.69a.81.81 0 0 0 1.14.15.82.82 0 0 0 .14-1.14l-1-1.34a.81.81 0 0 0-1.14-.16.81.81 0 0 0-.14 1.14z" fill="#0baa4b"/>
</svg>
